<svg width="167" height="179" viewBox="0 0 167 179" fill="none" xmlns="http://www.w3.org/2000/svg">
<g opacity="0.5">
<mask id="mask0_551_15921" style="mask-type:luminance" maskUnits="userSpaceOnUse" x="82" y="135" width="73" height="44">
<path d="M128.591 135C131.296 137.478 134.001 139.96 136.705 142.438C139.871 145.338 143.037 148.24 146.202 151.142C148.925 153.635 151.644 156.13 154.364 158.623C154.364 158.623 152.359 162.208 149.161 166.348C146.994 169.154 144.277 172.213 141.262 174.583C137.55 177.502 133.392 179.379 129.25 178.448L129.225 178.443C129.225 178.443 123.209 176.754 115.784 174.487C109.613 172.603 102.468 170.319 96.9931 168.271C94.8949 167.486 93.0395 166.735 91.5807 166.056C89.154 164.926 82 161.264 82 161.264C82 161.264 91.1709 163.428 103.582 157.44C108.691 154.975 114.347 151.13 120.14 145.183C122.941 142.305 125.773 138.941 128.591 135Z" fill="white"/>
</mask>
<g mask="url(#mask0_551_15921)">
<mask id="mask1_551_15921" style="mask-type:luminance" maskUnits="userSpaceOnUse" x="82" y="135" width="73" height="44">
<path d="M128.591 135C131.296 137.478 134.001 139.96 136.705 142.438C139.871 145.338 143.037 148.24 146.202 151.142C148.925 153.635 151.644 156.13 154.364 158.623C154.364 158.623 152.359 162.208 149.161 166.348C146.994 169.154 144.277 172.213 141.262 174.583C137.55 177.502 133.392 179.379 129.25 178.448L129.225 178.443C129.225 178.443 123.209 176.754 115.784 174.487C109.613 172.603 102.468 170.319 96.9931 168.271C94.8949 167.486 93.0395 166.735 91.5807 166.056C89.154 164.926 82 161.264 82 161.264C82 161.264 91.1709 163.428 103.582 157.44C108.691 154.975 114.347 151.13 120.14 145.183C122.941 142.305 125.773 138.941 128.591 135Z" fill="white"/>
</mask>
<g mask="url(#mask1_551_15921)">
<path d="M128.59 134.999C131.294 137.477 133.998 139.955 136.702 142.437C134.213 146.182 131.444 149.436 128.5 152.255C125.235 149.655 122.42 147.227 120.136 145.18C122.937 142.303 125.771 138.939 128.59 134.999Z" fill="#E8E8E8"/>
<path d="M136.702 142.437C139.869 145.335 143.034 148.236 146.201 151.137C143.856 154.506 141.421 157.426 138.932 159.965C135.119 157.365 131.61 154.733 128.5 152.255C131.445 149.436 134.213 146.182 136.702 142.437Z" fill="#E8E8E8"/>
<path d="M146.201 151.138C148.923 153.634 151.641 156.126 154.359 158.622C154.359 158.622 152.356 162.207 149.156 166.347C145.572 164.315 142.143 162.152 138.932 159.965C141.421 157.426 143.856 154.506 146.201 151.138Z" fill="#E8E8E8"/>
<path d="M120.136 145.181C122.42 147.228 125.235 149.655 128.5 152.255C123.734 156.816 118.52 160.238 113.33 162.777C109.678 160.885 106.378 159.053 103.581 157.437C108.687 154.973 114.347 151.128 120.136 145.181Z" fill="#E7E7E7"/>
<path d="M128.499 152.255C131.609 154.733 135.118 157.365 138.932 159.965C135.054 163.922 131.05 166.957 127.085 169.306C122.194 167.212 117.532 164.957 113.33 162.777C118.519 160.238 123.734 156.816 128.499 152.255Z" fill="#E7E7E7"/>
<path d="M138.933 159.965C142.143 162.152 145.572 164.314 149.156 166.347C146.991 169.152 144.276 172.211 141.26 174.581C136.462 173.098 131.675 171.273 127.085 169.305C131.05 166.957 135.054 163.922 138.933 159.965Z" fill="#E7E7E7"/>
<path d="M103.581 157.437C105.391 158.481 107.413 159.616 109.6 160.802C101.599 164.827 94.7644 165.294 91.579 166.052C89.1513 164.924 82.001 161.261 82.001 161.261C82.001 161.261 91.1695 163.427 103.581 157.437Z" fill="#E3E3E3"/>
<path d="M109.599 160.802C110.795 161.448 112.04 162.109 113.33 162.777C107.648 165.553 102 167.27 96.9899 168.268C94.8926 167.486 93.0361 166.73 91.5781 166.052C94.7635 165.294 101.598 164.828 109.599 160.802Z" fill="#E3E3E3"/>
<path d="M113.33 162.776C117.532 164.956 122.194 167.211 127.085 169.305C123.228 171.596 119.41 173.245 115.78 174.484C109.61 172.599 102.467 170.315 96.9907 168.268C102 167.27 107.649 165.552 113.33 162.776Z" fill="#E3E3E3"/>
<path d="M127.085 169.306C131.674 171.274 136.461 173.098 141.259 174.581C137.549 177.501 133.391 179.376 129.247 178.446C129.236 178.436 123.221 176.747 115.805 174.477C119.425 173.238 123.235 171.59 127.085 169.306Z" fill="#E3E3E3"/>
<path d="M115.805 174.478C123.221 176.747 129.236 178.439 129.247 178.446C129.236 178.446 129.233 178.446 129.221 178.446C129.221 178.446 123.206 176.755 115.779 174.488C115.79 174.488 115.797 174.479 115.805 174.479V174.478Z" fill="#D1D1D0"/>
</g>
</g>
<mask id="mask2_551_15921" style="mask-type:luminance" maskUnits="userSpaceOnUse" x="91" y="162" width="39" height="17">
<path d="M108.632 166.31C107.22 166.693 105.801 166.994 104.401 167.218C99.4703 168.003 94.7915 167.743 91.5808 166.056C95.7481 168.356 100.324 170.303 104.808 171.922C108.871 173.389 112.852 174.589 116.39 175.541C123.53 177.462 128.837 178.378 129.225 178.442C125.348 177.63 122.8 174.841 121.139 171.813C118.706 167.373 118.182 162.418 118.182 162.418C116.224 163.532 114.074 164.5 111.855 165.294C110.791 165.673 109.715 166.016 108.632 166.31Z" fill="white"/>
</mask>
<g mask="url(#mask2_551_15921)">
<mask id="mask3_551_15921" style="mask-type:luminance" maskUnits="userSpaceOnUse" x="91" y="162" width="39" height="17">
<path d="M108.632 166.31C107.22 166.693 105.801 166.994 104.401 167.218C99.4703 168.003 94.7915 167.743 91.5808 166.056C95.7481 168.356 100.324 170.303 104.808 171.922C108.871 173.389 112.852 174.589 116.39 175.541C123.53 177.462 128.837 178.378 129.225 178.442C125.348 177.63 122.8 174.841 121.139 171.813C118.706 167.373 118.182 162.418 118.182 162.418C116.224 163.532 114.074 164.5 111.855 165.294C110.791 165.673 109.715 166.016 108.632 166.31Z" fill="white"/>
</mask>
<g mask="url(#mask3_551_15921)">
<path d="M108.624 166.31C107.214 166.691 105.794 166.993 104.394 167.22C106.96 168.273 110.031 169.302 113.438 170.184C112.662 168.431 112.138 166.798 111.85 165.295C110.786 165.672 109.709 166.015 108.624 166.31Z" fill="#F1F1F1"/>
<path d="M104.394 167.22C99.4641 168.005 94.7848 167.745 91.5769 166.057C99.135 168.42 106.92 170.64 114.666 172.667C114.203 171.817 113.795 170.987 113.438 170.184C110.031 169.302 106.96 168.273 104.394 167.22Z" fill="#F1F1F1"/>
<path d="M91.5769 166.057C95.7419 168.355 100.319 170.303 104.803 171.923C108.865 173.388 112.848 174.589 116.382 175.539C115.744 174.555 115.171 173.597 114.666 172.667C106.92 170.64 99.135 168.42 91.5769 166.057Z" fill="#F0F0F0"/>
<path d="M111.85 165.294C112.139 166.797 112.663 168.43 113.438 170.183C115.853 170.811 118.44 171.367 121.134 171.813C118.701 167.374 118.177 162.416 118.177 162.416C116.218 163.531 114.07 164.498 111.85 165.294Z" fill="#F1F1F1"/>
<path d="M113.438 170.184C114.179 171.861 115.157 173.649 116.382 175.539C123.525 177.464 128.832 178.376 129.22 178.441C125.343 177.632 122.794 174.839 121.134 171.813C118.44 171.367 115.854 170.811 113.438 170.184Z" fill="#F1F1F1"/>
</g>
</g>
<mask id="mask4_551_15921" style="mask-type:luminance" maskUnits="userSpaceOnUse" x="96" y="0" width="40" height="61">
<path d="M123.411 38.2407C125.065 36.623 126.505 34.9262 127.761 33.1799C130.353 29.58 132.154 25.7807 133.393 22.09C134.601 18.4905 135.277 14.9959 135.634 11.8868C136.424 5.00086 135.657 0.011261 135.657 0.011261C133.053 0.559219 130.45 1.10793 127.845 1.65654C124.035 2.45828 120.225 3.26113 116.413 4.06389C113.41 4.69463 110.408 5.32752 107.404 5.95939C108.492 9.19068 109.286 12.2827 109.829 15.2384C110.68 19.8672 110.917 24.1539 110.72 28.0951C110.426 33.8839 109.188 38.9229 107.542 43.1873C103.385 53.9505 96.6458 59.7799 96.0504 60.2812C100.05 57.094 104.049 53.9075 108.049 50.72C111.644 47.8548 115.241 44.9895 118.836 42.1242C119.059 41.9449 119.283 41.7684 119.503 41.5901L119.548 41.55C120.95 40.4975 122.234 39.3895 123.411 38.2407Z" fill="white"/>
</mask>
<g mask="url(#mask4_551_15921)">
<mask id="mask5_551_15921" style="mask-type:luminance" maskUnits="userSpaceOnUse" x="96" y="0" width="40" height="61">
<path d="M123.411 38.2407C125.065 36.623 126.505 34.9262 127.761 33.1799C130.353 29.58 132.154 25.7807 133.393 22.09C134.601 18.4905 135.277 14.9959 135.634 11.8868C136.424 5.00086 135.657 0.011261 135.657 0.011261C133.053 0.559219 130.45 1.10793 127.845 1.65654C124.035 2.45828 120.225 3.26113 116.413 4.06389C113.41 4.69463 110.408 5.32752 107.404 5.95939C108.492 9.19068 109.286 12.2827 109.829 15.2384C110.68 19.8672 110.917 24.1539 110.72 28.0951C110.426 33.8839 109.188 38.9229 107.542 43.1873C103.385 53.9505 96.6458 59.7799 96.0504 60.2812C100.05 57.094 104.049 53.9075 108.049 50.72C111.644 47.8548 115.241 44.9895 118.836 42.1242C119.059 41.9449 119.283 41.7684 119.503 41.5901L119.548 41.55C120.95 40.4975 122.234 39.3895 123.411 38.2407Z" fill="white"/>
</mask>
<g mask="url(#mask5_551_15921)">
<path d="M123.417 38.242C125.071 36.6237 126.511 34.9271 127.768 33.1807C126.209 34.1305 124.468 35.1588 122.55 36.2186C121.648 38.0657 120.654 39.8531 119.553 41.5515C120.956 40.4986 122.24 39.391 123.417 38.242Z" fill="#D1D1D1"/>
<path d="M119.552 41.5517C120.653 39.8533 121.647 38.0659 122.549 36.2188C122.526 36.2299 122.503 36.2439 122.48 36.2579C121.583 38.1052 120.598 39.8925 119.509 41.5909C119.539 41.5685 119.552 41.5517 119.552 41.5517Z" fill="#D1D1D1"/>
<path d="M119.509 41.5907C120.598 39.8923 121.583 38.1041 122.48 36.2568C122.157 36.4331 121.83 36.612 121.499 36.7928C120.693 38.6423 119.811 40.4278 118.841 42.1239C119.063 41.9453 119.287 41.7692 119.509 41.5907Z" fill="#D1D1D1"/>
<path d="M127.768 33.1803C130.359 29.5798 132.16 25.78 133.399 22.0879C131.414 22.5571 128.704 23.2096 125.623 23.9901C124.607 28.4878 123.238 32.8006 121.499 36.7924C123.836 35.529 125.93 34.2996 127.768 33.1803Z" fill="#D5D5D5"/>
<path d="M133.399 22.0878C134.607 18.4896 135.283 14.9951 135.64 11.8867C133.321 12.0836 130.496 12.3487 127.42 12.6852C127.051 16.5214 126.454 20.3162 125.623 23.99C128.704 23.2094 131.414 22.5569 133.399 22.0878Z" fill="#DBDBDB"/>
<path d="M135.64 11.887C136.429 4.99963 135.661 0.00976562 135.661 0.00976562C133.059 0.559032 130.454 1.10559 127.849 1.65495C127.906 5.32407 127.767 9.02311 127.419 12.6854C130.496 12.3489 133.321 12.0838 135.64 11.887Z" fill="#DFDFDF"/>
<path d="M118.841 42.1241C119.812 40.428 120.693 38.6425 121.499 36.793C118.905 38.1938 116.021 39.6379 112.878 41.0158C111.606 44.1608 110.017 47.402 108.053 50.721C111.649 47.8553 115.245 44.9899 118.841 42.1241Z" fill="#D1D1D1"/>
<path d="M121.498 36.7926C123.238 32.8007 124.606 28.488 125.623 23.9902C122.92 24.6769 119.935 25.4575 116.911 26.2999C116.234 30.9006 114.984 35.8286 112.878 41.0154C116.021 39.6375 118.905 38.1934 121.498 36.7926Z" fill="#D5D5D5"/>
<path d="M125.623 23.9904C126.454 20.3166 127.051 16.5218 127.419 12.6855C124.286 13.0289 120.892 13.4457 117.504 13.9424C117.678 17.7146 117.561 21.8549 116.911 26.3C119.935 25.4577 122.919 24.677 125.623 23.9904Z" fill="#DBDBDB"/>
<path d="M127.42 12.6857C127.768 9.02344 127.908 5.32439 127.851 1.65527C124.042 2.45635 120.231 3.25993 116.418 4.06335C116.901 6.97488 117.338 10.2849 117.505 13.9426C120.893 13.4459 124.287 13.0291 127.42 12.6857Z" fill="#DFDFDF"/>
<path d="M108.053 50.7208C110.017 47.4019 111.605 44.1607 112.878 41.0156C111.177 41.7664 109.397 42.495 107.545 43.1885C103.391 53.9511 96.6493 59.7808 96.0542 60.282C100.053 57.0959 104.052 53.9094 108.053 50.7208Z" fill="#D1D1D1"/>
<path d="M112.878 41.0153C114.984 35.8286 116.234 30.9006 116.911 26.2998C114.837 26.8743 112.75 27.4787 110.724 28.0945C110.431 33.8832 109.193 38.9239 107.545 43.1882C109.397 42.4947 111.177 41.7661 112.878 41.0153Z" fill="#D5D5D5"/>
<path d="M116.912 26.2999C117.562 21.8548 117.679 17.7145 117.505 13.9424C114.903 14.3269 112.306 14.7569 109.834 15.2376C110.686 19.8658 110.922 24.153 110.725 28.0946C112.751 27.4789 114.838 26.8744 116.912 26.2999Z" fill="#DBDBDB"/>
<path d="M117.504 13.9418C117.337 10.2841 116.9 6.97403 116.417 4.0625C113.416 4.69194 110.413 5.32574 107.41 5.95742C108.497 9.18713 109.291 12.282 109.834 15.237C112.306 14.7563 114.902 14.3263 117.504 13.9418Z" fill="#DFDFDF"/>
</g>
</g>
<mask id="mask6_551_15921" style="mask-type:luminance" maskUnits="userSpaceOnUse" x="96" y="41" width="24" height="20">
<path d="M110.138 46.9359C110.754 46.6727 111.352 46.4 111.942 46.12C114.776 44.7779 117.288 43.2536 119.503 41.5904C119.138 41.9108 116.595 44.1253 113.189 46.9881C111.924 48.0519 110.539 49.2036 109.102 50.3816C104.557 54.1095 99.4878 58.0911 96.0158 60.3066L96.0504 60.2815C98.8821 58.2216 101.493 55.6232 103.558 53.3263C104.693 52.0627 105.665 50.8865 106.41 49.9478C107.196 48.9553 107.732 48.2236 107.953 47.9185C108.026 47.816 108.064 47.7628 108.064 47.7628C108.774 47.4966 109.463 47.2214 110.138 46.9359Z" fill="white"/>
</mask>
<g mask="url(#mask6_551_15921)">
<mask id="mask7_551_15921" style="mask-type:luminance" maskUnits="userSpaceOnUse" x="96" y="41" width="24" height="20">
<path d="M110.138 46.9359C110.754 46.6727 111.352 46.4 111.942 46.12C114.776 44.7779 117.288 43.2536 119.503 41.5904C119.138 41.9108 116.595 44.1253 113.189 46.9881C111.924 48.0519 110.539 49.2036 109.102 50.3816C104.557 54.1095 99.4878 58.0911 96.0158 60.3066L96.0504 60.2815C98.8821 58.2216 101.493 55.6232 103.558 53.3263C104.693 52.0627 105.665 50.8865 106.41 49.9478C107.196 48.9553 107.732 48.2236 107.953 47.9185C108.026 47.816 108.064 47.7628 108.064 47.7628C108.774 47.4966 109.463 47.2214 110.138 46.9359Z" fill="white"/>
</mask>
<g mask="url(#mask7_551_15921)">
<path d="M110.144 46.9319C110.76 46.6679 111.357 46.3955 111.948 46.1152C111.046 47.0678 110.031 48.0608 108.92 49.0602C108.638 48.6052 108.353 48.1699 108.071 47.7577C108.78 47.4916 109.47 47.2163 110.144 46.9319Z" fill="#E4E4E6"/>
<path d="M108.071 47.7578C108.354 48.1701 108.638 48.6053 108.921 49.0603C108.827 49.1471 108.731 49.2329 108.634 49.3182C108.408 48.8288 108.183 48.3575 107.96 47.9128C108.033 47.8112 108.071 47.7578 108.071 47.7578Z" fill="#E4E4E6"/>
<path d="M111.948 46.115C114.782 44.7725 117.294 43.2493 119.508 41.5859C116.078 44.2912 112.515 47.067 108.878 49.8556C108.797 49.6728 108.715 49.4946 108.633 49.3178C109.854 48.2333 110.967 47.1488 111.948 46.115Z" fill="#E4E4E6"/>
<path d="M119.508 41.5859C119.145 41.9068 116.601 44.1201 113.195 46.9818C111.93 48.0461 110.545 49.198 109.107 50.376C109.03 50.1994 108.955 50.0262 108.878 49.8556C112.515 47.067 116.078 44.2912 119.508 41.5859Z" fill="#E4E4E6"/>
<path d="M107.96 47.9121C108.183 48.3568 108.408 48.8281 108.634 49.3176C107.088 50.6886 105.379 52.0574 103.565 53.3207C104.7 52.0574 105.671 50.8811 106.416 49.9428C107.202 48.9497 107.739 48.2188 107.96 47.9121Z" fill="#E4E4E6"/>
<path d="M108.633 49.3174C108.792 49.6607 108.949 50.0121 109.107 50.3756C104.562 54.1045 99.4944 58.0855 96.0214 60.3014C98.8689 58.2277 101.495 55.6197 103.578 53.3105C105.388 52.0493 107.092 50.6842 108.633 49.3174Z" fill="#E4E4E6"/>
<path d="M103.578 53.3105C101.495 55.6198 98.869 58.2278 96.0215 60.3014C96.0317 60.2921 96.0477 60.2871 96.0579 60.2768C98.8871 58.2154 101.498 55.6177 103.564 53.3206C103.564 53.3206 103.575 53.3115 103.578 53.3105Z" fill="#E4E4E6"/>
</g>
</g>
<path d="M108.022 47.9697L108.121 47.8344C108.812 47.576 109.502 47.3007 110.172 47.016C110.729 46.779 111.304 46.5187 111.979 46.2004C114.454 45.0279 116.769 43.6738 118.869 42.1663L118.89 42.1925L119.559 41.6606L119.611 41.6147C120.966 40.5956 122.268 39.4804 123.471 38.3042C125.057 36.7558 126.524 35.0507 127.832 33.2325C130.21 29.9294 132.108 26.1895 133.474 22.1193C134.555 18.8968 135.312 15.4572 135.721 11.8985C136.504 5.07942 135.75 0.0507088 135.742 0.000404358L135.571 0.0262642C135.579 0.0758247 136.328 5.08521 135.549 11.8771C135.14 15.4263 134.389 18.8526 133.31 22.0642C131.949 26.1177 130.058 29.8426 127.691 33.1308C126.389 34.9387 124.93 36.6374 123.349 38.1792C122.151 39.3506 120.855 40.4611 119.496 41.4823L119.451 41.5242C117.181 43.2268 114.642 44.7479 111.904 46.0444C111.231 46.3608 110.661 46.6193 110.103 46.8563C109.428 47.1428 108.732 47.4203 108.034 47.6824L108.009 47.6908L107.993 47.7123C107.993 47.7134 107.955 47.7684 107.882 47.8701L108.022 47.9697Z" fill="#F5F5F5"/>
<path d="M96.0569 60.3828L96.1129 60.3423C98.5171 58.5945 101.048 56.2498 103.622 53.3853C104.606 52.2898 105.567 51.153 106.477 50.0031C107.242 49.0369 107.774 48.3147 108.022 47.9691L107.882 47.8695C107.634 48.2111 107.105 48.9316 106.342 49.8937C105.432 51.0407 104.474 52.1768 103.493 53.2687C100.927 56.1255 98.4051 58.4618 95.9999 60.2118L96.0569 60.3828Z" fill="#EBEBEB"/>
<mask id="mask8_551_15921" style="mask-type:luminance" maskUnits="userSpaceOnUse" x="64" y="62" width="55" height="41">
<path d="M80.7535 95.3155C81.4609 96.593 82.4585 97.7535 83.8255 98.7058C85.0756 99.5771 86.3642 100.274 87.6868 100.813C90.2818 101.868 93.0056 102.31 95.8268 102.251C98.6445 102.192 101.56 101.631 104.539 100.681C107.515 99.7315 110.554 98.3935 113.62 96.7798C113.99 94.9102 114.492 92.1479 115.038 89.058C115.587 85.9673 116.176 82.5471 116.723 79.3616C117.268 76.1753 117.767 73.2219 118.129 71.0664C118.493 68.9108 118.72 67.5514 118.72 67.5514C118.72 67.5514 114.814 70.1294 108.483 71.9512C103.871 73.279 97.972 74.2058 91.357 73.442C89.7792 73.2594 88.2389 72.9974 86.749 72.6749C80.7014 71.3633 75.4534 69.0397 71.5272 66.8952C66.8109 64.3182 64 61.9997 64 61.9997C64 61.9997 64.355 66.8961 65.9132 70.7276C66.1146 71.2242 66.3347 71.7209 66.6018 72.1868C68.0252 74.5147 69.4494 76.8409 70.8727 79.1679C72.5205 81.8593 74.1666 84.5507 75.8127 87.2421C77.4596 89.9335 79.1066 92.625 80.7535 95.3155Z" fill="white"/>
</mask>
<g mask="url(#mask8_551_15921)">
<mask id="mask9_551_15921" style="mask-type:luminance" maskUnits="userSpaceOnUse" x="64" y="62" width="55" height="41">
<path d="M80.7535 95.3155C81.4609 96.593 82.4585 97.7535 83.8255 98.7058C85.0756 99.5771 86.3642 100.274 87.6868 100.813C90.2818 101.868 93.0056 102.31 95.8268 102.251C98.6445 102.192 101.56 101.631 104.539 100.681C107.515 99.7315 110.554 98.3935 113.62 96.7798C113.99 94.9102 114.492 92.1479 115.038 89.058C115.587 85.9673 116.176 82.5471 116.723 79.3616C117.268 76.1753 117.767 73.2219 118.129 71.0664C118.493 68.9108 118.72 67.5514 118.72 67.5514C118.72 67.5514 114.814 70.1294 108.483 71.9512C103.871 73.279 97.972 74.2058 91.357 73.442C89.7792 73.2594 88.2389 72.9974 86.749 72.6749C80.7014 71.3633 75.4534 69.0397 71.5272 66.8952C66.8109 64.3182 64 61.9997 64 61.9997C64 61.9997 64.355 66.8961 65.9132 70.7276C66.1146 71.2242 66.3347 71.7209 66.6018 72.1868C68.0252 74.5147 69.4494 76.8409 70.8727 79.1679C72.5205 81.8593 74.1666 84.5507 75.8127 87.2421C77.4596 89.9335 79.1066 92.625 80.7535 95.3155Z" fill="white"/>
</mask>
<g mask="url(#mask9_551_15921)">
<path d="M80.7481 95.3115C81.457 96.59 82.4535 97.7497 83.8214 98.7036C83.0762 97.3919 82.3208 96.0537 81.5589 94.6957C80.1844 93.7649 79.0386 92.5758 78.2769 91.2773C79.1016 92.6221 79.9267 93.9667 80.7481 95.3115Z" fill="#DDDAD9"/>
<path d="M78.2768 91.2772C79.0386 92.5756 80.1844 93.7647 81.5589 94.6955C80.7971 93.3341 80.029 91.9563 79.2539 90.5651C77.8694 89.6576 76.6242 88.5609 75.8093 87.2393C76.6307 88.584 77.4553 89.9323 78.2768 91.2772Z" fill="#D7D4D2"/>
<path d="M83.8217 98.7038C85.0704 99.5749 86.3592 100.273 87.6808 100.81C86.3029 98.2795 84.8288 95.5203 83.3283 92.6783C82.01 92.1219 80.5691 91.4299 79.2542 90.5654C80.8043 93.3445 82.3345 96.0838 83.8217 98.7038Z" fill="#E4E4E3"/>
<path d="M87.6806 100.809C86.3027 98.2788 84.8286 95.5197 83.3281 92.6777C84.7922 93.2839 86.4717 93.8966 88.224 94.3769C89.3865 97.093 90.6546 99.6999 91.6681 101.946C90.3101 101.714 88.9791 101.336 87.6806 100.809Z" fill="#EBEBEB"/>
<path d="M91.6685 101.947C90.655 99.701 89.3869 97.094 88.2244 94.3779C89.9765 94.8549 91.8047 95.2031 93.5669 95.2792C94.3949 97.8694 95.1768 100.284 95.8227 102.248C94.4117 102.278 93.0266 102.182 91.6685 101.947Z" fill="#EFEFF0"/>
<path d="M95.8225 102.247C98.6413 102.188 101.556 101.628 104.533 100.677C104.391 98.9352 104.68 96.6266 105.137 94.0762C101.407 95.3415 97.4553 95.5073 93.5667 95.2787C94.3947 97.8689 95.1766 100.283 95.8225 102.247Z" fill="#F1F1F1"/>
<path d="M104.533 100.677C107.511 99.7299 110.549 98.3919 113.616 96.7789C113.984 94.9074 114.487 92.1451 115.033 89.0547C112.48 90.5982 108.797 92.8338 105.137 94.0759C104.68 96.6264 104.391 98.9349 104.533 100.677Z" fill="#F1F0F0"/>
<path d="M75.8095 87.2401C77.3961 89.8137 80.6155 91.5328 83.3283 92.6788C81.8344 89.8501 80.311 86.939 78.8203 84.0805C76.1838 82.9311 72.6958 81.5031 70.8674 79.168C72.5169 81.8575 74.1633 84.5505 75.8095 87.2401Z" fill="#D4D0D0"/>
<path d="M83.3277 92.6784C81.8339 89.8497 80.3104 86.9386 78.8198 84.0801C80.5124 84.7889 82.4467 85.4908 84.5202 86.0672C85.6795 88.823 87.0676 91.6781 88.2236 94.3776C86.4713 93.8973 84.7918 93.2845 83.3277 92.6784Z" fill="#DBDBDB"/>
<path d="M88.2238 94.3768C87.0678 91.6773 85.6798 88.8222 84.5205 86.0664C86.5973 86.6461 88.8098 87.0999 91.0555 87.3185C91.8803 89.9683 92.7449 92.7111 93.5663 95.2781C91.8042 95.2021 89.976 94.8538 88.2238 94.3768Z" fill="#E3E3E3"/>
<path d="M93.5663 95.2782C97.4549 95.5068 101.407 95.3412 105.136 94.0757C105.587 91.5418 106.206 88.7728 106.733 86.0898C101.778 87.8752 96.2293 87.9346 91.0554 87.3186C91.8803 89.9684 92.7448 92.7112 93.5663 95.2782Z" fill="#EBEBEB"/>
<path d="M105.137 94.0773C108.797 92.8352 112.48 90.5996 115.033 89.0561C115.308 87.5126 115.594 85.8828 115.875 84.2432C113.682 85.7403 110.039 88.6916 105.905 90.1423C105.627 91.4838 105.362 92.8121 105.137 94.0773Z" fill="#EFEFEF"/>
<path d="M105.905 90.141C110.039 88.6903 113.682 85.739 115.875 84.2419C116.16 82.6023 116.444 80.9526 116.719 79.3594C114.884 80.8069 111.341 84.4307 106.733 86.0902C106.471 87.4316 106.183 88.7963 105.905 90.141Z" fill="#EDEDED"/>
<path d="M70.8675 79.1666C71.7816 80.3325 73.1099 81.2733 74.5408 82.0683C73.8784 80.899 73.2325 79.7035 72.5866 78.5045C71.1326 77.7129 69.7609 76.792 68.7341 75.6758C69.4462 76.8384 70.1586 78.0007 70.8675 79.1666Z" fill="#D0D0D0"/>
<path d="M68.7342 75.6768C69.761 76.793 71.1326 77.7139 72.5867 78.5055C71.9408 77.3064 71.298 76.1039 70.6521 74.928C69.1649 74.1431 67.7406 73.2488 66.5979 72.1855C67.31 73.3481 68.022 74.5109 68.7342 75.6768Z" fill="#D4D4D3"/>
<path d="M74.5408 82.0696C75.9718 82.8612 77.5022 83.5041 78.8204 84.0804C78.211 82.9079 77.5714 81.7418 76.9421 80.5692C75.5774 79.9631 74.0407 79.2975 72.5867 78.5059C73.2326 79.7049 73.8784 80.9004 74.5408 82.0696Z" fill="#D4D3D2"/>
<path d="M72.5864 78.5052C74.0405 79.2969 75.5772 79.9624 76.9419 80.5686C76.3092 79.396 75.6865 78.2201 75.1035 77.0277C73.6958 76.3917 72.1391 75.7128 70.6519 74.9277C71.2978 76.1036 71.9406 77.3061 72.5864 78.5052Z" fill="#DADADA"/>
<path d="M66.5974 72.1845C66.3292 71.7174 66.1108 71.2204 65.9087 70.7236C67.0813 71.777 68.5086 72.6712 69.9924 73.4628C70.2012 73.9497 70.4032 74.4599 70.6516 74.927C69.1644 74.142 67.7401 73.2477 66.5974 72.1845Z" fill="#DEDDDC"/>
<path d="M70.6521 74.928C70.4037 74.461 70.2016 73.9508 69.9929 73.4639C71.4769 74.2588 73.024 74.9513 74.435 75.6105C74.6503 76.0841 74.8752 76.5577 75.1038 77.028C73.696 76.392 72.1394 75.7131 70.6521 74.928Z" fill="#E7E7E7"/>
<path d="M78.82 84.0799C80.5126 84.7887 82.4469 85.4906 84.5204 86.067C84.2355 85.3781 83.9309 84.6926 83.6229 84.0103C81.4533 83.4207 79.4295 82.7052 77.7004 81.9766C78.078 82.6788 78.4557 83.3777 78.82 84.0799Z" fill="#D9D8D6"/>
<path d="M77.7008 81.9774C79.4298 82.706 81.4537 83.4215 83.6233 84.0111C83.3152 83.3288 83.0005 82.653 82.6925 81.9807C80.4501 81.3712 78.3763 80.6458 76.5679 79.874C76.9455 80.5762 77.3232 81.2785 77.7008 81.9774Z" fill="#DBDAD9"/>
<path d="M76.5677 79.8733C78.3762 80.645 80.4499 81.3704 82.6923 81.9799C82.0763 80.6351 81.4833 79.3168 80.9898 78.0383C78.5751 77.2963 76.3593 76.4417 74.4348 75.6104C75.0874 77.0511 75.8191 78.4689 76.5677 79.8733Z" fill="#E1E1E0"/>
<path d="M84.5207 86.0676C86.5975 86.6472 88.81 87.101 91.0557 87.3196C90.6351 85.9682 90.2274 84.6432 89.8399 83.3746C87.3523 83.0766 84.9381 82.5866 82.6924 81.9805C83.3085 83.3219 83.9476 84.693 84.5207 86.0676Z" fill="#E2E1E1"/>
<path d="M82.6922 81.9798C84.938 82.5859 87.3522 83.0758 89.8397 83.3739C89.4522 82.1086 89.0885 80.8998 88.7572 79.7868C86.0279 79.406 83.4078 78.78 80.9897 78.0381C81.4832 79.3166 82.0762 80.6349 82.6922 81.9798Z" fill="#E6E6E6"/>
<path d="M91.0557 87.3191C96.2295 87.9351 101.778 87.8757 106.733 86.0904C107.276 83.3511 107.719 80.7045 107.802 78.4854C101.797 80.7045 95.0142 80.7774 88.7573 79.787C89.4198 82.0129 90.2177 84.6196 91.0557 87.3191Z" fill="#E9E9E9"/>
<path d="M106.733 86.0904C111.34 84.4309 114.884 80.8071 116.719 79.3596C117.262 76.1732 117.763 73.2188 118.124 71.0625C117.18 72.2914 113.599 76.3457 107.802 78.4854C107.719 80.7046 107.276 83.3511 106.733 86.0904Z" fill="#ECECEC"/>
<path d="M65.9091 70.7238C67.0816 71.7772 68.509 72.6714 69.9928 73.463C69.1846 71.5783 68.214 69.0976 67.4291 67.0805C66.0312 66.2093 64.9549 65.4505 64.3687 64.9238C64.6502 66.6264 65.1307 68.8093 65.9091 70.7238Z" fill="#E2E1DF"/>
<path d="M64.369 64.9246C64.9553 65.4513 66.0316 66.2101 67.4295 67.0813C66.6477 65.0607 66.0515 63.5073 65.992 63.4808C64.7001 62.5766 63.9949 62 63.9949 62C63.9949 62 64.0842 63.2221 64.369 64.9246Z" fill="#EEEDED"/>
<path d="M69.9925 73.4636C71.4764 74.2585 73.0236 74.951 74.4345 75.6102C73.5966 73.7553 72.9273 71.6056 72.4404 69.9031C70.5557 68.9293 68.8298 67.9488 67.4287 67.0811C68.2137 69.0982 69.1843 71.5789 69.9925 73.4636Z" fill="#EAEBEB"/>
<path d="M67.4292 67.0809C68.8303 67.9486 70.5562 68.9291 72.4409 69.903C71.9506 68.2004 71.6426 66.9485 71.5234 66.8921C69.165 65.6037 67.2835 64.3814 65.9917 63.4805C66.0514 63.5069 66.6475 65.0604 67.4292 67.0809Z" fill="#F3F4F3"/>
<path d="M74.4346 75.6094C78.2801 77.2721 83.2985 79.0277 88.7571 79.7861C88.5816 79.1965 87.9454 77.6694 87.4188 76.1623C81.6652 75.1289 76.3257 71.8069 72.4404 69.9023C72.9273 71.6048 73.5966 73.7545 74.4346 75.6094Z" fill="#EDEFEF"/>
<path d="M72.4404 69.9034C76.3258 71.808 81.6653 75.1299 87.4188 76.1634C86.8954 74.6596 86.478 73.1756 86.7429 72.6722C80.698 71.3605 75.448 69.039 71.5229 66.8926C71.6422 66.9489 71.9502 68.2008 72.4404 69.9034Z" fill="#F5F6F6"/>
<path d="M88.7567 79.7879C90.0784 79.9966 91.4262 80.159 92.7842 80.2649C92.5292 78.9036 90.8135 74.6573 91.3534 73.4416C89.7735 73.2594 88.2331 72.9975 86.7426 72.6729C86.2127 73.6765 88.4057 78.612 88.7567 79.7879Z" fill="#ECECEC"/>
<path d="M92.7851 80.2634C97.8496 80.6509 103.069 80.2369 107.803 78.4846C107.889 76.1693 107.922 74.2215 108.478 71.9492C103.868 73.2774 97.9689 74.2019 91.3542 73.4401C90.8143 74.6557 92.53 78.9021 92.7851 80.2634Z" fill="#EDEDED"/>
<path d="M107.802 78.4849C113.599 76.3452 117.18 72.2909 118.124 71.062C118.489 68.9091 118.713 67.5479 118.713 67.5479C118.713 67.5479 114.808 70.1277 108.478 71.9495C107.922 74.2218 107.889 76.1696 107.802 78.4849Z" fill="#EDEDED"/>
</g>
</g>
<mask id="mask10_551_15921" style="mask-type:luminance" maskUnits="userSpaceOnUse" x="48" y="90" width="39" height="56">
<path d="M63.4759 131.587C64.9322 133.966 66.9261 135.975 69.1399 137.668C70.9044 139.019 72.8071 140.168 74.6916 141.134C77.1271 142.381 79.5242 143.322 81.546 144.009C84.6938 145.077 86.9268 145.526 86.9268 145.526C86.9268 142.926 86.9268 140.322 86.9268 137.722C86.9268 134.644 86.9268 131.568 86.9268 128.491C86.9268 125.842 86.9268 123.194 86.9268 120.545C84.5719 119.917 82.3552 119.239 80.2596 118.517C76.8487 117.341 73.7757 116.048 71.0033 114.657C66.9972 112.65 63.618 110.445 60.7889 108.1C60.0189 107.467 59.2961 106.82 58.6049 106.167C53.2385 101.092 50.176 95.5044 48.5642 90.0439C49.3332 92.8096 52.0087 102.246 55.2324 111.755C56.8097 116.408 58.5175 121.076 60.1985 124.991C61.3188 127.599 62.4276 129.876 63.4759 131.587Z" fill="white"/>
</mask>
<g mask="url(#mask10_551_15921)">
<mask id="mask11_551_15921" style="mask-type:luminance" maskUnits="userSpaceOnUse" x="48" y="90" width="39" height="56">
<path d="M63.4759 131.587C64.9322 133.966 66.9261 135.975 69.1399 137.668C70.9044 139.019 72.8071 140.168 74.6916 141.134C77.1271 142.381 79.5242 143.322 81.546 144.009C84.6938 145.077 86.9268 145.526 86.9268 145.526C86.9268 142.926 86.9268 140.322 86.9268 137.722C86.9268 134.644 86.9268 131.568 86.9268 128.491C86.9268 125.842 86.9268 123.194 86.9268 120.545C84.5719 119.917 82.3552 119.239 80.2596 118.517C76.8487 117.341 73.7757 116.048 71.0033 114.657C66.9972 112.65 63.618 110.445 60.7889 108.1C60.0189 107.467 59.2961 106.82 58.6049 106.167C53.2385 101.092 50.176 95.5044 48.5642 90.0439C49.3332 92.8096 52.0087 102.246 55.2324 111.755C56.8097 116.408 58.5175 121.076 60.1985 124.991C61.3188 127.599 62.4276 129.876 63.4759 131.587Z" fill="white"/>
</mask>
<g mask="url(#mask11_551_15921)">
<path d="M63.4765 131.585C64.9333 133.964 66.9262 135.975 69.1395 137.667C68.0718 135.169 66.9823 132.33 65.9037 129.323C63.7704 127.934 61.8685 126.475 60.2 124.99C61.3196 127.597 62.4283 129.875 63.4765 131.585Z" fill="#E8E8E8"/>
<path d="M69.1396 137.667C70.9054 139.018 72.8076 140.165 74.6924 141.131C74.4157 138.937 74.0674 136.323 73.6827 133.521C70.8102 132.248 68.2209 130.83 65.9038 129.323C66.9824 132.33 68.0719 135.168 69.1396 137.667Z" fill="#E8E8E8"/>
<path d="M74.6921 141.131C77.1259 142.378 79.5248 143.319 81.5457 144.007C81.3684 141.802 81.1978 139.114 81.0422 136.229C78.4118 135.438 75.9583 134.527 73.6824 133.521C74.067 136.323 74.4154 138.937 74.6921 141.131Z" fill="#E8E8E8"/>
<path d="M81.5454 144.007C84.6924 145.075 86.9253 145.524 86.9253 145.524C86.9253 142.924 86.9253 140.319 86.9253 137.719C84.8741 137.291 82.9138 136.791 81.042 136.229C81.1976 139.115 81.3682 141.802 81.5454 144.007Z" fill="#E8E8E8"/>
<path d="M60.2 124.99C61.8686 126.474 63.7705 127.933 65.9038 129.323C64.5767 125.618 63.2693 121.656 62.046 117.753C59.4738 115.879 57.2131 113.867 55.2332 111.753C56.811 116.404 58.5185 121.073 60.2 124.99Z" fill="#E8E8E8"/>
<path d="M65.903 129.324C68.22 130.83 70.8094 132.249 73.6819 133.522C73.2496 130.36 72.772 126.96 72.2986 123.646C68.4211 121.9 65.0236 119.917 62.0452 117.754C63.2685 121.657 64.5759 125.619 65.903 129.324Z" fill="#E8E8E8"/>
<path d="M73.6826 133.522C75.9586 134.527 78.412 135.439 81.0424 136.23C80.8761 133.189 80.7247 129.929 80.5863 126.769C77.6057 125.84 74.8498 124.794 72.2993 123.646C72.7727 126.96 73.2503 130.36 73.6826 133.522Z" fill="#E8E8E8"/>
<path d="M81.0425 136.229C82.9143 136.791 84.8747 137.291 86.9258 137.719C86.9258 134.641 86.9258 131.567 86.9258 128.489C84.7082 127.97 82.5987 127.395 80.5864 126.769C80.7248 129.929 80.8762 133.188 81.0425 136.229Z" fill="#E8E8E8"/>
<path d="M55.2323 111.754C57.2122 113.867 59.4729 115.88 62.0451 117.754C60.7828 113.71 59.6112 109.732 58.604 106.166C53.2372 101.091 50.1764 95.5039 48.5662 90.042C49.3335 92.8086 52.0074 102.246 55.2323 111.754Z" fill="#E9E9E9"/>
<path d="M62.0458 117.754C62.6207 118.171 63.213 118.581 63.8182 118.985C62.7115 115.177 61.6783 111.435 60.79 108.098C60.0205 107.465 59.2964 106.819 58.6047 106.166C59.612 109.732 60.7835 113.71 62.0458 117.754Z" fill="#E9E9E9"/>
<path d="M63.8182 118.986C66.3534 120.676 69.1696 122.237 72.2993 123.646C71.8454 120.471 71.4004 117.38 71.0027 114.656C66.9977 112.649 63.6193 110.444 60.79 108.099C61.6783 111.436 62.7115 115.177 63.8182 118.986Z" fill="#E9E9E9"/>
<path d="M72.2995 123.645C74.85 124.793 77.6059 125.838 80.5865 126.768C80.4611 123.843 80.351 121.006 80.2603 118.514C76.8496 117.338 73.7761 116.045 71.0029 114.655C71.4007 117.379 71.8456 120.47 72.2995 123.645Z" fill="#E9E9E9"/>
<path d="M80.5865 126.768C82.5988 127.395 84.7083 127.97 86.9259 128.489C86.9259 125.839 86.9259 123.191 86.9259 120.543C84.5722 119.914 82.3547 119.237 80.2603 118.515C80.3515 121.007 80.4611 123.844 80.5865 126.768Z" fill="#E9E9E9"/>
</g>
</g>
<mask id="mask12_551_15921" style="mask-type:luminance" maskUnits="userSpaceOnUse" x="47" y="75" width="17" height="34">
<path d="M54.758 101.98C52.5913 99.234 50.9804 96.3981 49.8053 93.5594C49.3196 92.3853 48.9087 91.2112 48.564 90.0438L48.493 89.7894L48.4373 89.5955C47.9122 87.737 47.5532 85.8976 47.3257 84.0995C46.9177 80.8825 46.9292 77.8009 47.1615 74.9996C47.1615 74.9996 47.4418 75.7071 48.2367 77.1068C49.0325 78.5075 50.3429 80.5993 52.4031 83.368C53.7164 85.1286 55.3311 87.1657 57.3125 89.4707C59.1096 91.5626 61.2063 93.8781 63.6485 96.4106C63.6485 96.4106 63.5573 96.7082 63.4066 97.2132C62.7653 99.3492 61.0661 105.214 60.7887 108.1C59.6002 107.122 58.5097 106.118 57.5074 105.095C56.5052 104.073 55.5903 103.034 54.758 101.98Z" fill="white"/>
</mask>
<g mask="url(#mask12_551_15921)">
<mask id="mask13_551_15921" style="mask-type:luminance" maskUnits="userSpaceOnUse" x="47" y="75" width="17" height="34">
<path d="M54.758 101.98C52.5913 99.234 50.9804 96.3981 49.8053 93.5594C49.3196 92.3853 48.9087 91.2112 48.564 90.0438L48.493 89.7894L48.4373 89.5955C47.9122 87.737 47.5532 85.8976 47.3257 84.0995C46.9177 80.8825 46.9292 77.8009 47.1615 74.9996C47.1615 74.9996 47.4418 75.7071 48.2367 77.1068C49.0325 78.5075 50.3429 80.5993 52.4031 83.368C53.7164 85.1286 55.3311 87.1657 57.3125 89.4707C59.1096 91.5626 61.2063 93.8781 63.6485 96.4106C63.6485 96.4106 63.5573 96.7082 63.4066 97.2132C62.7653 99.3492 61.0661 105.214 60.7887 108.1C59.6002 107.122 58.5097 106.118 57.5074 105.095C56.5052 104.073 55.5903 103.034 54.758 101.98Z" fill="white"/>
</mask>
<g mask="url(#mask13_551_15921)">
<path d="M54.7553 101.982C52.5888 99.2357 50.978 96.4007 49.8035 93.5605C51.6663 93.8934 53.6404 94.1482 55.8602 94.649C55.9168 97.1499 56.5584 102.283 57.505 105.097C56.5034 104.076 55.589 103.036 54.7553 101.982Z" fill="#D0D0D0"/>
<path d="M49.8025 93.5606C49.3162 92.3876 48.9061 91.2131 48.5603 90.0449C50.4118 90.2793 52.3614 90.5798 54.6039 91.2018C55.3083 92.4765 55.8383 93.6942 55.8592 94.649C53.6394 94.1482 51.6653 93.8934 49.8025 93.5606Z" fill="#D0D0D0"/>
<path d="M48.5598 90.0451C48.5339 89.9596 48.5077 89.8766 48.4885 89.791C50.3109 90.0108 52.2349 90.3067 54.4515 90.932C54.5033 91.0222 54.5549 91.1132 54.6034 91.202C52.3609 90.58 50.4112 90.2794 48.5598 90.0451Z" fill="#D0D0CF"/>
<path d="M48.4891 89.7907C48.468 89.7178 48.4535 89.6532 48.4324 89.5967C50.2353 89.8051 52.1353 90.0983 54.3325 90.7236C54.3728 90.7927 54.4132 90.8622 54.4521 90.9317C52.2354 90.3064 50.3115 90.0105 48.4891 89.7907Z" fill="#D0D0CF"/>
<path d="M48.4328 89.5962C47.9076 87.7382 47.5506 85.8988 47.3228 84.1006C48.4408 84.2007 49.6432 84.6009 51.212 85.4459C51.7968 86.7916 53.2165 88.7892 54.3329 90.7231C52.1357 90.0979 50.2357 89.8047 48.4328 89.5962Z" fill="#D0D0CF"/>
<path d="M47.3223 84.1008C46.9152 80.8825 46.9252 77.8015 47.1578 75C47.1578 75 47.437 75.707 48.2335 77.1061C48.7732 79.389 50.0176 82.6834 51.2115 85.4461C49.6428 84.6011 48.4403 84.201 47.3223 84.1008Z" fill="#D0D0CF"/>
<path d="M57.5042 105.097C56.5576 102.282 55.9159 97.1493 55.8594 94.6484C58.0793 95.1493 60.548 95.8977 63.4044 97.2144C62.7629 99.3503 61.0634 105.216 60.7855 108.102C59.598 107.124 58.506 106.12 57.5042 105.097Z" fill="#D0D0D0"/>
<path d="M55.8592 94.6487C55.8496 94.4434 55.8266 94.2259 55.7786 93.998C58.0921 94.4359 60.6641 95.14 63.6465 96.4131C63.6465 96.4131 63.5543 96.7106 63.4042 97.2146C60.5478 95.898 58.0791 95.1495 55.8592 94.6487Z" fill="#D3D3D3"/>
<path d="M55.7782 93.9982C55.2353 91.4408 52.1499 87.6063 51.2112 85.4463C52.7799 86.2945 54.7184 87.5858 57.3082 89.4729C59.1064 91.5635 61.2034 93.88 63.6462 96.4132C60.6637 95.1402 58.0917 94.4361 55.7782 93.9982Z" fill="#D2D2D2"/>
<path d="M51.2121 85.4465C50.0181 82.6838 48.7737 79.3893 48.2341 77.1064C49.029 78.5072 50.3393 80.5998 52.4008 83.369C53.7127 85.13 55.3285 87.1676 57.3091 89.4731C54.7193 87.586 52.7808 86.2946 51.2121 85.4465Z" fill="#D0D0D0"/>
</g>
</g>
<mask id="mask14_551_15921" style="mask-type:luminance" maskUnits="userSpaceOnUse" x="117" y="80" width="52" height="45">
<path d="M117.124 121.527C120.011 116.927 122.894 112.326 125.777 107.724C128.662 103.122 131.546 98.5227 134.433 93.9212C137.315 89.3201 140.199 84.7182 143.084 80.1177C143.084 80.1177 144.597 80.7121 147.041 81.4026C149.484 82.0943 152.856 82.8829 156.573 83.2698C160.292 83.657 164.354 83.6461 168.178 82.7361C168.178 82.7361 166.377 85.1975 163.644 88.9109C160.91 92.6243 157.241 97.5879 153.504 102.592C149.768 107.598 145.964 112.644 142.958 116.52C140.393 119.828 138.406 122.285 137.543 123.138C137.14 123.535 136.604 123.833 135.965 124.048C133.246 124.963 128.678 124.38 124.721 123.545C120.591 122.673 117.124 121.527 117.124 121.527Z" fill="white"/>
</mask>
<g mask="url(#mask14_551_15921)">
<mask id="mask15_551_15921" style="mask-type:luminance" maskUnits="userSpaceOnUse" x="117" y="80" width="52" height="45">
<path d="M117.124 121.527C120.011 116.927 122.894 112.326 125.777 107.724C128.662 103.122 131.546 98.5227 134.433 93.9212C137.315 89.3201 140.199 84.7182 143.084 80.1177C143.084 80.1177 144.597 80.7121 147.041 81.4026C149.484 82.0943 152.856 82.8829 156.573 83.2698C160.292 83.657 164.354 83.6461 168.178 82.7361C168.178 82.7361 166.377 85.1975 163.644 88.9109C160.91 92.6243 157.241 97.5879 153.504 102.592C149.768 107.598 145.964 112.644 142.958 116.52C140.393 119.828 138.406 122.285 137.543 123.138C137.14 123.535 136.604 123.833 135.965 124.048C133.246 124.963 128.678 124.38 124.721 123.545C120.591 122.673 117.124 121.527 117.124 121.527Z" fill="white"/>
</mask>
<g mask="url(#mask15_551_15921)">
<path d="M117.127 121.521C120.014 116.921 122.894 112.32 125.775 107.719C125.775 107.719 126.645 107.888 128.041 108.113C125.089 112.913 122.212 117.592 119.376 122.207C117.992 121.813 117.126 121.527 117.126 121.527L117.127 121.521Z" fill="#ECECEC"/>
<path d="M119.376 122.201C122.212 117.586 125.09 112.908 128.041 108.107C129.443 108.327 131.359 108.596 133.457 108.802C130.43 113.801 127.514 118.908 124.722 123.536C122.658 123.101 120.753 122.599 119.376 122.201Z" fill="#E6E6E6"/>
<path d="M125.775 107.718C128.662 103.118 131.549 98.5176 134.43 93.9163C134.43 93.9163 137.903 93.9562 142.153 93.8546C139.626 98.5822 136.539 103.759 133.458 108.802C129.261 108.395 125.775 107.718 125.775 107.718Z" fill="#ECECEC"/>
<path d="M134.429 93.9164C137.317 89.3104 140.198 84.7088 143.085 80.1084C143.085 80.1084 144.597 80.707 147.04 81.3964C145.847 84.61 144.475 89.4914 142.152 93.8547C137.902 93.9563 134.429 93.9164 134.429 93.9164Z" fill="#ECECEC"/>
<path d="M124.723 123.536C127.515 118.907 130.431 113.801 133.458 108.802C137.371 109.182 141.906 109.336 144.798 108.493C141.647 113.87 138.607 119.449 135.963 124.038C133.246 124.959 128.681 124.371 124.723 123.536Z" fill="#E4E4E4"/>
<path d="M133.457 108.801C136.538 103.759 139.625 98.5817 142.152 93.8541C145.941 93.7665 150.357 93.5588 153.471 93.095C151.157 97.6832 147.966 103.118 144.797 108.492C141.906 109.336 137.37 109.182 133.457 108.801Z" fill="#E8E8E8"/>
<path d="M142.153 93.8552C144.475 89.4919 145.847 84.6104 147.041 81.3969C148.262 81.7444 149.714 82.1145 151.332 82.4429C150.697 84.9131 150.279 89.343 148.067 93.6139C146.1 93.7363 144.048 93.8086 142.153 93.8552Z" fill="#E8E8E8"/>
<path d="M148.067 93.6135C150.279 89.3426 150.697 84.9126 151.332 82.4425C152.943 82.7763 154.714 83.0718 156.573 83.266C156.498 84.9869 155.574 88.9174 153.471 93.0956C151.914 93.3304 150.033 93.4969 148.067 93.6135Z" fill="#E9E9E9"/>
<path d="M135.963 124.039C138.607 119.449 141.646 113.87 144.798 108.493C145.381 108.318 145.96 108.096 146.53 107.83C143.322 113.157 140.197 118.65 137.543 123.132C137.139 123.527 136.605 123.827 135.963 124.039Z" fill="#E4E4E6"/>
<path d="M137.543 123.132C140.198 118.65 143.323 113.156 146.53 107.83C147.835 107.222 149.09 106.388 150.261 105.469C146.788 110.637 142.442 116.565 139.616 120.747C138.69 121.88 137.976 122.708 137.543 123.132Z" fill="#E3E3E4"/>
<path d="M139.616 120.747C142.441 116.565 146.788 110.637 150.261 105.469C151.432 104.55 152.523 103.547 153.508 102.583C149.769 107.588 145.964 112.634 142.956 116.513C141.675 118.166 140.537 119.608 139.616 120.747Z" fill="#D7D6D7"/>
<path d="M144.797 108.494C147.966 103.119 151.157 97.6844 153.471 93.0962C154.388 92.9617 155.283 92.7467 156.16 92.4701C153.782 96.9178 150.47 102.173 147.206 107.49C146.422 107.906 145.622 108.249 144.797 108.494Z" fill="#E9E9E9"/>
<path d="M147.206 107.49C150.47 102.173 153.782 96.9177 156.16 92.47C157.038 92.1876 157.897 91.8495 158.733 91.4716C156.212 95.6241 152.943 100.863 149.484 106.052C148.756 106.584 147.989 107.074 147.206 107.49Z" fill="#E7E7E7"/>
<path d="M149.484 106.051C152.944 100.862 156.212 95.6231 158.733 91.4706C159.575 91.0937 160.404 90.6797 161.221 90.2456C158.553 94.0905 155.245 99.2933 151.596 104.355C150.923 104.943 150.218 105.52 149.484 106.051Z" fill="#E0E0E0"/>
<path d="M151.596 104.356C155.244 99.2946 158.553 94.0918 161.22 90.2469C162.038 89.807 162.845 89.3533 163.646 88.9047C160.913 92.6208 157.24 97.5846 153.508 102.585C152.907 103.168 152.268 103.768 151.596 104.356Z" fill="#D4D5D5"/>
<path d="M153.472 93.0963C155.574 88.9179 156.498 84.9869 156.574 83.266C158.434 83.4543 160.381 83.5522 162.339 83.4811C162.301 84.3445 161.154 87.5251 158.733 91.4717C157.049 92.2312 155.311 92.8283 153.472 93.0963Z" fill="#E9E9E9"/>
<path d="M158.733 91.4708C161.153 87.5242 162.3 84.3435 162.339 83.4802C164.296 83.4149 166.269 83.1822 168.176 82.7319C168.176 82.7319 166.379 85.1878 163.646 88.9037C162.043 89.8065 160.416 90.7172 158.733 91.4708Z" fill="#E1E1E1"/>
</g>
</g>
<mask id="mask16_551_15921" style="mask-type:luminance" maskUnits="userSpaceOnUse" x="136" y="68" width="43" height="56">
<path d="M137.543 123.137C137.543 123.137 144.77 116.917 136.468 101.424L136.493 101.409C137.094 101.046 148.792 93.9428 160.165 85.4701C162.605 83.6533 165.028 81.7739 167.327 79.8825C169.624 77.9921 171.791 76.0913 173.723 74.2348C175.651 72.3777 177.341 70.562 178.68 68.8436C178.68 68.8436 176.087 78.1624 172.258 83.4452C171.619 84.3292 170.221 86.0263 168.34 88.2412C163.427 94.0226 155.206 103.328 148.491 110.878C146.459 113.162 144.565 115.285 142.943 117.102C141.322 118.919 139.973 120.427 139.026 121.482C138.082 122.537 137.543 123.137 137.543 123.137Z" fill="white"/>
</mask>
<g mask="url(#mask16_551_15921)">
<mask id="mask17_551_15921" style="mask-type:luminance" maskUnits="userSpaceOnUse" x="136" y="68" width="43" height="56">
<path d="M137.543 123.137C137.543 123.137 144.77 116.917 136.468 101.424L136.493 101.409C137.094 101.046 148.792 93.9428 160.165 85.4701C162.605 83.6533 165.028 81.7739 167.327 79.8825C169.624 77.9921 171.791 76.0913 173.723 74.2348C175.651 72.3777 177.341 70.562 178.68 68.8436C178.68 68.8436 176.087 78.1624 172.258 83.4452C171.619 84.3292 170.221 86.0263 168.34 88.2412C163.427 94.0226 155.206 103.328 148.491 110.878C146.459 113.162 144.565 115.285 142.943 117.102C141.322 118.919 139.973 120.427 139.026 121.482C138.082 122.537 137.543 123.137 137.543 123.137Z" fill="white"/>
</mask>
<g mask="url(#mask17_551_15921)">
<path d="M137.543 123.139C137.543 123.139 144.773 116.919 136.469 101.426C139.531 100.722 142.904 99.6299 146.433 98.2899C151.311 111.265 140.768 119.524 139.029 121.481C138.085 122.534 137.543 123.139 137.543 123.139Z" fill="#D9D9D9"/>
<path d="M136.47 101.425C136.47 101.425 136.483 101.415 136.497 101.411C139.56 100.702 142.926 99.6147 146.461 98.2698C146.447 98.2795 146.441 98.2845 146.433 98.2904C142.904 99.6303 139.531 100.722 136.47 101.425Z" fill="#DADAD9"/>
<path d="M136.497 101.411C137.097 101.047 148.792 93.9434 160.165 85.4667C162.609 83.6511 165.034 81.7694 167.329 79.878C159.908 85.4092 153.528 92.3076 146.462 98.269C142.926 99.6139 139.56 100.701 136.497 101.411Z" fill="#DADAD9"/>
<path d="M139.03 121.481C140.768 119.524 151.311 111.266 146.433 98.2903C149.969 96.9454 153.659 95.3528 157.359 93.637C157.339 103.014 147.17 112.355 142.943 117.1C141.323 118.916 139.974 120.429 139.03 121.481Z" fill="#D9D9D9"/>
<path d="M146.433 98.2891C146.447 98.2794 146.446 98.2793 146.461 98.2685C149.99 96.9286 153.682 95.3302 157.382 93.6143C157.368 93.6241 157.361 93.6289 157.36 93.6348C153.66 95.3507 149.97 96.9432 146.434 98.2882L146.433 98.2891Z" fill="#DEDEDE"/>
<path d="M146.461 98.2708C150.214 95.1036 153.775 91.6723 157.404 88.3213C160.434 86.7948 163.473 85.1447 166.386 83.4668C163.68 87.1842 160.644 90.3952 157.381 93.6164C153.681 95.3322 149.99 96.9308 146.461 98.2708Z" fill="#DEDEDE"/>
<path d="M157.404 88.3204C160.602 85.3626 163.851 82.4697 167.329 79.8789C169.623 77.9934 171.794 76.0933 173.722 74.2315C170.688 76.5 168.577 80.4516 166.387 83.4659C163.473 85.1438 160.434 86.7939 157.404 88.3204Z" fill="#DDDDDD"/>
<path d="M142.943 117.098C147.17 112.354 157.338 103.013 157.359 93.6352C161.06 91.9133 164.768 90.0802 168.326 88.2522C163.412 94.0387 155.198 103.333 148.494 110.874C146.461 113.161 144.563 115.283 142.943 117.098Z" fill="#D9D9D9"/>
<path d="M157.358 93.6365C157.36 93.6247 157.373 93.6268 157.381 93.6161C161.075 91.8991 164.782 90.0663 168.34 88.2381C168.338 88.25 168.326 88.2475 168.325 88.2534C164.768 90.0815 161.059 91.9146 157.358 93.6365Z" fill="#DEDEDE"/>
<path d="M157.381 93.6165C159.077 91.9391 160.717 90.2641 162.281 88.52C165.714 86.8701 169.092 85.1424 172.258 83.446C171.624 84.3281 170.223 86.0258 168.34 88.2386C164.783 90.0667 161.075 91.8996 157.381 93.6165Z" fill="#DEDEDE"/>
<path d="M162.281 88.5186C163.714 86.9143 165.091 85.2438 166.386 83.4655C169.685 81.2929 172.863 79.0933 175.784 76.9424C174.802 79.2182 173.611 81.5829 172.258 83.4446C169.092 85.141 165.713 86.8687 162.281 88.5186Z" fill="#DEDEDE"/>
<path d="M166.387 83.4651C168.578 80.4507 170.688 76.4991 173.722 74.2306C175.655 72.376 177.344 70.5601 178.678 68.8448C178.678 68.8448 177.593 72.7501 175.784 76.942C172.864 79.0929 169.686 81.2925 166.387 83.4651Z" fill="#DDDDDD"/>
</g>
</g>
<mask id="mask18_551_15921" style="mask-type:luminance" maskUnits="userSpaceOnUse" x="33" y="133" width="33" height="46">
<path d="M42.9132 178.531C42.9132 178.531 46.2172 175.229 43.9705 169.479C43.6499 168.658 43.297 167.883 42.9141 167.145C40.8782 163.234 37.9779 160.372 34.4402 157.299C33.9716 156.891 33.4909 156.481 33 156.063C34.4449 152.512 35.8901 148.961 37.3348 145.41C39.018 141.273 40.7009 137.135 42.3841 133C42.3841 133 43.2833 133.329 44.7311 134.002C46.179 134.674 48.1749 135.685 50.3687 137.049C52.563 138.411 54.9549 140.123 57.1943 142.195C58.8207 143.7 60.3663 145.394 61.6976 147.283C63.0282 149.169 64.1452 151.25 64.912 153.528C65.251 154.534 65.5213 155.58 65.7124 156.663C65.7124 156.663 64.6888 157.787 62.9946 159.576C61.0502 161.627 58.2237 164.555 55.0482 167.664C53.7647 168.919 52.4245 170.205 51.0626 171.474C49.7011 172.745 48.3175 173.998 46.9472 175.19C45.577 176.382 44.2208 177.511 42.9132 178.531Z" fill="white"/>
</mask>
<g mask="url(#mask18_551_15921)">
<mask id="mask19_551_15921" style="mask-type:luminance" maskUnits="userSpaceOnUse" x="33" y="133" width="33" height="46">
<path d="M42.9132 178.531C42.9132 178.531 46.2172 175.229 43.9705 169.479C43.6499 168.658 43.297 167.883 42.9141 167.145C40.8782 163.234 37.9779 160.372 34.4402 157.299C33.9716 156.891 33.4909 156.481 33 156.063C34.4449 152.512 35.8901 148.961 37.3348 145.41C39.018 141.273 40.7009 137.135 42.3841 133C42.3841 133 43.2833 133.329 44.7311 134.002C46.179 134.674 48.1749 135.685 50.3687 137.049C52.563 138.411 54.9549 140.123 57.1943 142.195C58.8207 143.7 60.3663 145.394 61.6976 147.283C63.0282 149.169 64.1452 151.25 64.912 153.528C65.251 154.534 65.5213 155.58 65.7124 156.663C65.7124 156.663 64.6888 157.787 62.9946 159.576C61.0502 161.627 58.2237 164.555 55.0482 167.664C53.7647 168.919 52.4245 170.205 51.0626 171.474C49.7011 172.745 48.3175 173.998 46.9472 175.19C45.577 176.382 44.2208 177.511 42.9132 178.531Z" fill="white"/>
</mask>
<g mask="url(#mask19_551_15921)">
<path d="M42.9141 178.525C42.9141 178.525 46.2189 175.224 43.9703 169.473C45.5058 168.478 47.3536 167.501 49.3504 166.548C49.7813 169.677 49.402 172.781 46.9471 175.184C45.5784 176.377 44.222 177.506 42.9141 178.525Z" fill="#E6E6E6"/>
<path d="M43.9703 169.474C43.6516 168.654 43.2995 167.878 42.9141 167.143C44.6074 166.16 46.677 165.222 48.9257 164.333C49.1017 165.067 49.2472 165.808 49.3504 166.548C47.3536 167.501 45.5058 168.478 43.9703 169.474Z" fill="#E9E9E9"/>
<path d="M42.9137 167.144C40.8775 163.232 37.9796 160.37 34.4412 157.296C36.9538 156.444 39.9731 155.721 43.2808 155.142C45.9726 157.873 48.0271 160.583 48.9253 164.333C46.6767 165.223 44.6071 166.16 42.9137 167.144Z" fill="#EBEBEB"/>
<path d="M34.4411 157.295C33.9738 156.889 33.491 156.476 33.0024 156.06C35.5788 155.204 38.6925 154.485 42.1156 153.921C42.5101 154.312 42.9045 154.755 43.2808 155.141C39.973 155.72 36.9538 156.443 34.4411 157.295Z" fill="#F0F0F0"/>
<path d="M33.0024 156.06C34.4469 152.507 35.8915 148.956 37.3359 145.406C38.7713 144.926 40.9288 144.644 43.5083 144.589C42.7344 147.642 42.9926 150.798 42.1156 153.921C38.6925 154.485 35.5788 155.204 33.0024 156.06Z" fill="#F0F0F0"/>
<path d="M37.3359 145.406C39.0171 141.27 40.7016 137.13 42.3858 132.997C42.3858 132.997 43.2839 133.325 44.7315 133.999C43.9061 137.452 44.4096 141.036 43.5083 144.589C40.9289 144.644 38.7713 144.927 37.3359 145.406Z" fill="#F0F0F0"/>
<path d="M46.946 175.184C49.9837 172.213 49.8411 168.169 48.9246 164.333C51.1733 163.447 53.6011 162.606 56.0136 161.811C55.1093 165.713 54.0016 168.593 51.0611 171.47C49.7016 172.741 48.3177 173.995 46.946 175.184Z" fill="#E6E6E6"/>
<path d="M48.9255 164.332C48.0272 160.582 45.9727 157.872 43.281 155.14C46.5918 154.561 50.1909 154.127 53.8689 153.851C55.8232 156.694 56.8065 158.387 56.0144 161.81C53.602 162.605 51.1741 163.446 48.9255 164.332Z" fill="#EBEBEB"/>
<path d="M43.2814 155.142C42.9051 154.756 42.5107 154.313 42.1162 153.922C45.6182 153.382 49.4296 153.002 53.3231 152.796C53.4778 153.184 53.6569 153.539 53.8693 153.852C50.1914 154.128 46.5922 154.562 43.2814 155.142Z" fill="#EDEDED"/>
<path d="M42.1162 153.921C42.9932 150.799 42.7351 147.642 43.5089 144.59C46.0884 144.535 49.0929 144.714 52.2246 145.151C52.3915 147.342 52.4461 150.589 53.3231 152.796C49.4296 153.002 45.6182 153.381 42.1162 153.921Z" fill="#EDEDED"/>
<path d="M43.5085 144.589C44.4098 141.036 43.9063 137.452 44.7317 133.999C46.1792 134.673 48.176 135.683 50.37 137.045C50.7706 139.525 52.0088 142.429 52.2243 145.151C49.0925 144.714 46.088 144.535 43.5085 144.589Z" fill="#EDEDED"/>
<path d="M51.062 171.47C54.0025 168.593 55.1102 165.713 56.0145 161.811C58.424 161.016 60.8182 160.269 62.9941 159.571C61.0519 161.623 58.2237 164.551 55.0495 167.658C53.7658 168.915 52.4245 170.201 51.062 171.47Z" fill="#E6E6E6"/>
<path d="M56.0144 161.811C56.4514 159.924 56.3483 158.562 55.8416 157.245C59.1675 156.938 62.5267 156.741 65.713 156.659C65.713 156.659 64.6903 157.785 62.9939 159.572C60.8181 160.27 58.4239 161.016 56.0144 161.811Z" fill="#EBEBEB"/>
<path d="M55.8417 157.244C55.4259 156.17 54.7459 155.126 53.8689 153.851C57.5438 153.578 61.2979 153.463 64.9121 153.524C65.252 154.531 65.522 155.578 65.7131 156.658C62.5268 156.74 59.1676 156.937 55.8417 157.244Z" fill="#EDEDED"/>
<path d="M53.8688 153.851C52.4638 151.769 52.4214 147.727 52.2241 145.15C55.3528 145.587 58.6119 146.286 61.6982 147.278C63.0273 149.166 64.1442 151.247 64.912 153.523C61.2977 153.463 57.5437 153.578 53.8688 153.851Z" fill="#EFEFEF"/>
<path d="M52.2244 145.151C52.0089 142.429 50.7707 139.525 50.3701 137.046C52.5642 138.408 54.9556 140.12 57.1951 142.192C58.8217 143.697 60.3662 145.391 61.6985 147.279C58.6122 146.287 55.3531 145.588 52.2244 145.151Z" fill="#EFEFEF"/>
</g>
</g>
<mask id="mask20_551_15921" style="mask-type:luminance" maskUnits="userSpaceOnUse" x="139" y="47" width="23" height="21">
<path d="M155.42 61.8151C156.115 62.4079 156.822 63.0044 157.542 63.5995C158.261 64.1955 158.992 64.7928 159.733 65.3866C160.472 65.9807 161.222 66.5716 161.979 67.1565C159.969 65.1824 158.79 62.5489 158.108 59.9153C157.428 57.2823 157.247 54.6484 157.236 52.6741C157.224 50.6978 157.383 49.3816 157.383 49.3816C157.383 49.3816 155.752 49.6384 153.491 49.8213C151.231 50.0051 148.341 50.1154 145.825 49.8231C144.55 49.6755 143.371 49.4238 142.418 49.0274C141.557 48.667 140.735 48.0574 139.961 47.2888C140.401 47.7474 141.381 48.7607 142.787 50.1581C144.193 51.5554 146.025 53.338 148.169 55.3367C150.312 57.3354 152.768 59.5512 155.42 61.8151Z" fill="white"/>
</mask>
<g mask="url(#mask20_551_15921)">
<mask id="mask21_551_15921" style="mask-type:luminance" maskUnits="userSpaceOnUse" x="139" y="47" width="23" height="21">
<path d="M155.42 61.8151C156.115 62.4079 156.822 63.0044 157.542 63.5995C158.261 64.1955 158.992 64.7928 159.733 65.3866C160.472 65.9807 161.222 66.5716 161.979 67.1565C159.969 65.1824 158.79 62.5489 158.108 59.9153C157.428 57.2823 157.247 54.6484 157.236 52.6741C157.224 50.6978 157.383 49.3816 157.383 49.3816C157.383 49.3816 155.752 49.6384 153.491 49.8213C151.231 50.0051 148.341 50.1154 145.825 49.8231C144.55 49.6755 143.371 49.4238 142.418 49.0274C141.557 48.667 140.735 48.0574 139.961 47.2888C140.401 47.7474 141.381 48.7607 142.787 50.1581C144.193 51.5554 146.025 53.338 148.169 55.3367C150.312 57.3354 152.768 59.5512 155.42 61.8151Z" fill="white"/>
</mask>
<g mask="url(#mask21_551_15921)">
<path d="M155.416 61.8169C156.11 62.4082 156.818 63.0045 157.537 63.6002C155.012 61.5474 152.99 59.4016 151.374 57.4283C150.151 56.8816 149.153 56.2414 148.165 55.3359C150.309 57.3363 152.763 59.5513 155.416 61.8169Z" fill="#ECECEB"/>
<path d="M157.537 63.6006C158.256 64.1962 158.99 64.7932 159.729 65.3859C157.462 63.3751 156.074 61.0064 155.21 58.7338C154.076 58.3433 152.56 57.9453 151.375 57.4287C152.991 59.402 155.012 61.5478 157.537 63.6006Z" fill="#ECECEB"/>
<path d="M159.729 65.3855C160.469 65.9809 161.219 66.5732 161.975 67.1576C159.964 65.1833 158.787 62.5492 158.105 59.9158C157.543 59.4831 156.344 59.1266 155.21 58.7334C156.074 61.006 157.462 63.3747 159.729 65.3855Z" fill="#ECECEB"/>
<path d="M148.165 55.3358C149.153 56.2413 150.15 56.8815 151.374 57.4282C149.761 55.4567 148.556 53.6565 147.662 52.2986C145.881 51.9021 144.142 51.4692 142.784 50.1572C144.189 51.5559 146.02 53.339 148.165 55.3358Z" fill="#ECECEB"/>
<path d="M151.374 57.4285C152.56 57.9451 154.076 58.3431 155.209 58.7336C154.343 56.4646 154.006 54.2872 153.838 52.6525C152.14 52.547 149.514 52.704 147.662 52.2988C148.557 53.6568 149.762 55.457 151.374 57.4285Z" fill="#F4F4F4"/>
<path d="M155.209 58.7343C156.343 59.1275 157.543 59.484 158.105 59.9167C157.423 57.2834 157.243 54.652 157.231 52.6761C156.951 52.458 155.535 52.7559 153.838 52.6532C154.006 54.288 154.343 56.4653 155.209 58.7343Z" fill="#EFEFEF"/>
<path d="M142.784 50.1579C143.416 50.7675 144.127 51.186 144.887 51.5012C143.684 50.1962 142.855 49.2993 142.415 49.0283C141.553 48.6695 140.732 48.0569 139.957 47.292C140.399 47.7483 141.378 48.7627 142.784 50.1579Z" fill="#ECECEB"/>
<path d="M144.886 51.5011C145.766 51.8633 146.709 52.0886 147.662 52.2992C146.769 50.9441 146.188 50.0274 145.821 49.8233C144.547 49.675 143.366 49.4251 142.414 49.0283C142.854 49.2993 143.683 50.1962 144.886 51.5011Z" fill="#F1F1F1"/>
<path d="M147.662 52.2992C149.513 52.7044 152.14 52.5473 153.838 52.6528C153.67 51.018 153.67 49.923 153.487 49.821C151.226 50.006 148.338 50.1169 145.82 49.8232C146.188 50.0273 146.768 50.944 147.662 52.2992Z" fill="#F4F4F4"/>
<path d="M153.839 52.6525C155.536 52.7553 156.952 52.4574 157.231 52.6755C157.219 50.6996 157.379 49.3834 157.379 49.3834C157.379 49.3834 155.749 49.6385 153.488 49.8208C153.671 49.9228 153.671 51.0177 153.839 52.6525Z" fill="#F2F2F2"/>
</g>
</g>
<path d="M157.395 49.455C157.379 49.4568 155.736 49.7142 153.497 49.8965C151.432 50.0625 148.424 50.1989 145.818 49.8963C144.435 49.736 143.282 49.4668 142.389 49.0952C141.572 48.7539 140.737 48.1629 139.908 47.3413C139.444 46.8976 139.034 46.401 138.729 46.0181C135.931 42.5146 134.022 37.4865 134.003 37.4365L134.142 37.384C134.16 37.434 136.061 42.4399 138.844 45.9255C139.147 46.3041 139.554 46.7961 140.012 47.2338C140.829 48.0434 141.647 48.6236 142.446 48.9586C143.325 49.3244 144.465 49.5899 145.834 49.7486C148.428 50.0499 151.427 49.9143 153.486 49.747C155.717 49.566 157.355 49.3101 157.372 49.3071L157.395 49.455Z" fill="#F5F5F5"/>
<path d="M179.453 69.9948C176.585 70.8431 173.728 71.1335 170.947 70.8571C169.372 70.7011 167.784 70.359 166.226 69.8418C164.581 69.2957 163.133 68.4128 161.918 67.2189C160.131 65.4601 158.82 63.0108 158.026 59.9375C157.321 57.2086 157.16 54.4811 157.15 52.6737C157.139 50.7157 157.296 49.3845 157.296 49.3709L157.47 49.3925C157.468 49.4048 157.313 50.7267 157.323 52.6732C157.333 54.4699 157.492 57.1831 158.193 59.8939C158.98 62.9363 160.274 65.3595 162.041 67.095C163.234 68.2701 164.662 69.1393 166.281 69.6756C167.825 70.1903 169.401 70.53 170.965 70.6844C173.886 70.9747 176.901 70.63 179.913 69.6718C182.713 68.7794 185.616 67.3202 188.543 65.3332C191.208 63.5238 194 61.2018 196.846 58.4329L196.966 58.557C194.074 61.3726 191.352 63.636 188.64 65.4767C185.7 67.4725 182.781 68.9391 179.965 69.8364C179.795 69.8917 179.623 69.9445 179.453 69.9948Z" fill="#F5F5F5"/>
<mask id="mask22_551_15921" style="mask-type:luminance" maskUnits="userSpaceOnUse" x="0" y="133" width="26" height="40">
<path d="M0 172.28C0.0933333 171.289 0.581468 168.339 1.26093 164.47C1.9404 160.601 2.81121 155.815 3.67174 151.153C4.53041 146.491 5.37972 141.953 6.01159 138.58C6.64439 135.208 7.06346 133 7.06346 133C7.25666 133.194 9.11026 133.699 11.564 134.305C12.1697 134.454 12.8137 134.608 13.4783 134.768C16.1252 135.397 19.1053 136.07 21.4247 136.587C23.7449 137.102 25.4016 137.461 25.4016 137.461C24.3479 140.032 23.5275 143.107 22.89 146.273C22.2488 149.437 21.7924 152.695 21.4676 155.63C21.1428 158.565 20.9496 161.178 20.8367 163.059C20.7237 164.938 20.6939 166.084 20.6939 166.084C20.6939 166.084 18.7161 167.857 15.0668 169.683C13.7947 170.318 12.3209 170.961 10.6559 171.537C8.57733 172.256 6.72933 172.588 5.18187 172.709C1.932 172.962 0 172.28 0 172.28Z" fill="white"/>
</mask>
<g mask="url(#mask22_551_15921)">
<mask id="mask23_551_15921" style="mask-type:luminance" maskUnits="userSpaceOnUse" x="0" y="133" width="26" height="40">
<path d="M0 172.28C0.0933333 171.289 0.581468 168.339 1.26093 164.47C1.9404 160.601 2.81121 155.815 3.67174 151.153C4.53041 146.491 5.37972 141.953 6.01159 138.58C6.64439 135.208 7.06346 133 7.06346 133C7.25666 133.194 9.11026 133.699 11.564 134.305C12.1697 134.454 12.8137 134.608 13.4783 134.768C16.1252 135.397 19.1053 136.07 21.4247 136.587C23.7449 137.102 25.4016 137.461 25.4016 137.461C24.3479 140.032 23.5275 143.107 22.89 146.273C22.2488 149.437 21.7924 152.695 21.4676 155.63C21.1428 158.565 20.9496 161.178 20.8367 163.059C20.7237 164.938 20.6939 166.084 20.6939 166.084C20.6939 166.084 18.7161 167.857 15.0668 169.683C13.7947 170.318 12.3209 170.961 10.6559 171.537C8.57733 172.256 6.72933 172.588 5.18187 172.709C1.932 172.962 0 172.28 0 172.28Z" fill="white"/>
</mask>
<g mask="url(#mask23_551_15921)">
<path d="M-0.00268555 172.277C0.0906478 171.286 0.577555 168.336 1.25786 164.467C2.6447 165.854 5.39891 165.825 7.19875 165.987C6.62587 169.248 5.43289 172.012 5.17987 172.705C1.92869 172.96 -0.00268555 172.277 -0.00268555 172.277Z" fill="#E4E4E4"/>
<path d="M1.25781 164.466C2.64465 165.853 5.39886 165.824 7.1987 165.987C7.49708 164.282 7.78585 162.322 8.0819 160.253C6.1555 159.744 3.88542 159.594 2.39349 158.104C1.98525 160.367 1.5968 162.531 1.25781 164.466Z" fill="#E3E3E3"/>
<path d="M2.39404 158.104C3.88598 159.593 6.15605 159.744 8.08245 160.252C8.38084 158.18 8.68865 155.999 9.02764 153.848C6.96516 152.994 5.26135 152.741 3.66917 151.148C3.23956 153.481 2.80462 155.841 2.39404 158.104Z" fill="#DADADA"/>
<path d="M3.66895 151.149C4.52836 146.487 5.37523 141.949 6.00775 138.576C7.62148 140.187 9.24781 140.681 11.2696 141.651C10.5464 145.131 9.7793 149.545 9.02741 153.849C6.96493 152.994 5.26112 152.741 3.66895 151.149Z" fill="#D3D3D3"/>
<path d="M6.00757 138.576C6.64018 135.203 7.0603 132.997 7.0603 132.997C7.25369 133.188 9.10635 133.694 11.5602 134.3C11.1807 134.957 10.3097 137.423 9.57684 140.879C8.29024 140.295 7.14624 139.715 6.00757 138.576Z" fill="#D3D3D3"/>
<path d="M9.57715 140.88C10.31 137.423 11.181 134.957 11.5605 134.301C12.1669 134.449 12.8109 134.604 13.4745 134.764C12.9947 135.659 11.9882 138.194 11.2697 141.651C10.6754 141.367 10.1143 141.121 9.57715 140.88Z" fill="#DBDBDB"/>
<path d="M5.18042 172.704C5.43345 172.011 6.62642 169.247 7.1993 165.986C8.82246 166.134 10.3842 165.895 11.9261 165.521C11.5323 168.566 10.7468 170.918 10.6537 171.532C8.57454 172.252 6.72723 172.584 5.18042 172.704Z" fill="#E7E7E8"/>
<path d="M10.6531 171.532C10.7464 170.918 11.5316 168.567 11.9255 165.521C13.2361 165.201 14.5339 164.781 15.842 164.416C15.5556 167.233 15.067 169.178 15.0645 169.677C13.7923 170.314 12.3168 170.956 10.6531 171.532Z" fill="#E7E7E8"/>
<path d="M7.19897 165.987C7.79808 162.575 8.34939 158.153 9.02736 153.849C11.8799 155.028 13.6704 154.691 16.659 154.629C16.3296 158.295 16.1193 161.716 15.8423 164.416C12.9945 165.211 10.2042 166.259 7.19897 165.987Z" fill="#E6E6E6"/>
<path d="M9.02759 153.848C9.77948 149.545 10.5465 145.131 11.2698 141.65C13.6783 142.806 15.1653 143.693 17.8651 143.958C17.0487 147.176 16.9838 151.003 16.6592 154.629C13.6706 154.69 11.8801 155.028 9.02759 153.848Z" fill="#DEDEDE"/>
<path d="M11.2698 141.651C11.9883 138.194 12.9948 135.659 13.4746 134.764C16.1218 135.391 19.1014 136.065 21.4216 136.583C20.135 138.182 18.722 140.571 17.8651 143.958C15.1653 143.693 13.6783 142.806 11.2698 141.651Z" fill="#DEDEDE"/>
<path d="M15.0652 169.677C15.0652 169.179 15.5562 167.233 15.8427 164.416C19.1369 163.5 20.8347 163.056 20.8347 163.056C20.7225 164.934 20.6916 166.08 20.6916 166.08C20.6916 166.08 18.7127 167.854 15.0652 169.677Z" fill="#E7E7E8"/>
<path d="M15.8423 164.415C16.1192 161.716 16.3296 158.295 16.659 154.628C19.977 154.559 21.4642 155.626 21.4642 155.626C21.1395 158.56 20.9465 161.174 20.8343 163.055C20.8343 163.055 19.1365 163.499 15.8423 164.415Z" fill="#E6E6E6"/>
<path d="M16.6592 154.629C16.9838 151.003 17.0487 147.177 17.865 143.959C21.2905 144.296 22.8872 146.268 22.8872 146.268C22.245 149.433 21.789 152.691 21.4644 155.627C21.4644 155.627 19.9772 154.56 16.6592 154.629Z" fill="#E6E6E6"/>
<path d="M17.865 143.959C18.7219 140.571 20.1349 138.182 21.4215 136.583C23.7418 137.099 25.3982 137.456 25.3982 137.456C24.3456 140.027 23.5245 143.102 22.8871 146.267C22.8871 146.267 21.2904 144.295 17.865 143.959Z" fill="#E6E6E6"/>
</g>
</g>
</g>
</svg>
