<svg width="375" height="264" viewBox="0 0 375 264" fill="none" xmlns="http://www.w3.org/2000/svg">
<g clip-path="url(#clip0_527_1008)">
<path fill-rule="evenodd" clip-rule="evenodd" d="M375 0H0V204C0 220.569 13.4315 234 30 234H345C361.569 234 375 247.431 375 264V234V0Z" fill="url(#paint0_linear_527_1008)"/>
<path d="M277.532 101.553C276.991 98.855 278.732 96.227 281.427 95.6725L372.154 77.0075C374.858 76.4511 377.502 78.1926 378.059 80.8974L404.202 207.973C404.765 210.713 402.97 213.383 400.22 213.896L363.863 220.667C363.223 220.787 362.565 220.78 361.927 220.647L302.005 208.153C300.044 207.744 298.517 206.205 298.123 204.241L277.532 101.553Z" fill="#F94A46"/>
<g filter="url(#filter0_d_527_1008)">
<path d="M247.81 99.3671C247.111 96.7057 248.694 93.9797 251.352 93.2676L340.822 69.2941C343.49 68.5794 346.231 70.1623 346.946 72.8296L380.524 198.146C381.249 200.848 379.614 203.619 376.898 204.293L341.003 213.193C340.371 213.35 339.714 213.381 339.069 213.286L278.515 204.342C276.534 204.049 274.919 202.602 274.41 200.665L247.81 99.3671Z" fill="#9FBC22"/>
</g>
<g filter="url(#filter1_d_527_1008)">
<path d="M231.472 134.327C230.392 131.797 231.56 128.869 234.085 127.776L319.092 90.9858C321.626 89.889 324.57 91.0543 325.666 93.5886L377.196 212.653C378.307 215.221 377.095 218.201 374.507 219.264L340.298 233.314C339.695 233.561 339.05 233.688 338.398 233.688L277.188 233.688C275.185 233.688 273.375 232.493 272.589 230.651L231.472 134.327Z" fill="#FFBB33"/>
</g>
<path d="M316.223 204.231L274.747 228.335C272.089 229.88 273.199 233.948 276.274 233.929L338.867 233.534C341.448 233.517 342.805 230.466 341.088 228.538L319.971 204.829C319.022 203.765 317.456 203.515 316.223 204.231Z" fill="#EF9506"/>
</g>
<defs>
<filter id="filter0_d_527_1008" x="247.645" y="69.1226" width="138.051" height="148.217" filterUnits="userSpaceOnUse" color-interpolation-filters="sRGB">
<feFlood flood-opacity="0" result="BackgroundImageFix"/>
<feColorMatrix in="SourceAlpha" type="matrix" values="0 0 0 0 0 0 0 0 0 0 0 0 0 0 0 0 0 0 127 0" result="hardAlpha"/>
<feOffset dx="5" dy="4"/>
<feComposite in2="hardAlpha" operator="out"/>
<feColorMatrix type="matrix" values="0 0 0 0 0 0 0 0 0 0 0 0 0 0 0 0 0 0 0.15 0"/>
<feBlend mode="normal" in2="BackgroundImageFix" result="effect1_dropShadow_527_1008"/>
<feBlend mode="normal" in="SourceGraphic" in2="effect1_dropShadow_527_1008" result="shape"/>
</filter>
<filter id="filter1_d_527_1008" x="231.07" y="84.5732" width="149.539" height="149.115" filterUnits="userSpaceOnUse" color-interpolation-filters="sRGB">
<feFlood flood-opacity="0" result="BackgroundImageFix"/>
<feColorMatrix in="SourceAlpha" type="matrix" values="0 0 0 0 0 0 0 0 0 0 0 0 0 0 0 0 0 0 127 0" result="hardAlpha"/>
<feOffset dx="3" dy="-6"/>
<feComposite in2="hardAlpha" operator="out"/>
<feColorMatrix type="matrix" values="0 0 0 0 0 0 0 0 0 0 0 0 0 0 0 0 0 0 0.15 0"/>
<feBlend mode="normal" in2="BackgroundImageFix" result="effect1_dropShadow_527_1008"/>
<feBlend mode="normal" in="SourceGraphic" in2="effect1_dropShadow_527_1008" result="shape"/>
</filter>
<linearGradient id="paint0_linear_527_1008" x1="93.5" y1="74" x2="385" y2="314" gradientUnits="userSpaceOnUse">
<stop stop-color="#19979C"/>
<stop offset="1" stop-color="#144281"/>
</linearGradient>
<clipPath id="clip0_527_1008">
<rect width="375" height="264" fill="white"/>
</clipPath>
</defs>
</svg>
