<svg width="490" height="480" viewBox="0 0 490 480" fill="none" xmlns="http://www.w3.org/2000/svg">
<path d="M473 240C473 362.958 371.236 463.2 245 463.2C118.764 463.2 17 362.958 17 240C17 117.042 118.764 16.8 245 16.8C371.236 16.8 473 117.042 473 240Z" stroke="white" stroke-width="33.6"/>
<path d="M173 134.771H255.944C263.277 134.771 270.309 131.858 275.494 126.673C280.679 121.488 283.592 114.455 283.592 107.123V93.2985" stroke="white" stroke-width="27.648" stroke-linecap="round" stroke-linejoin="round"/>
<path d="M283.591 86.3864C287.409 86.3864 290.503 89.4811 290.503 93.2984C290.503 97.1158 287.409 100.21 283.591 100.21C279.774 100.21 276.679 97.1158 276.679 93.2984C276.679 89.4811 279.774 86.3864 283.591 86.3864Z" stroke="white" stroke-width="27.648" stroke-linecap="round" stroke-linejoin="round"/>
<path d="M230.6 304.499H341.192" stroke="white" stroke-width="27.648" stroke-linecap="round" stroke-linejoin="round"/>
<path d="M285.896 304.499V345.971C285.896 353.303 288.809 360.336 293.994 365.521C299.179 370.706 306.212 373.619 313.544 373.619" stroke="white" stroke-width="27.648" stroke-linecap="round" stroke-linejoin="round"/>
<path d="M313.544 366.707C317.362 366.707 320.456 369.801 320.456 373.619C320.456 377.436 317.362 380.531 313.544 380.531C309.727 380.531 306.632 377.436 306.632 373.619C306.632 369.801 309.727 366.707 313.544 366.707Z" stroke="white" stroke-width="27.648" stroke-linecap="round" stroke-linejoin="round"/>
<path d="M341.192 297.587C345.009 297.587 348.104 300.681 348.104 304.499C348.104 308.316 345.009 311.411 341.192 311.411C337.375 311.411 334.28 308.316 334.28 304.499C334.28 300.681 337.375 297.587 341.192 297.587Z" stroke="white" stroke-width="27.648" stroke-linecap="round" stroke-linejoin="round"/>
<mask id="path-8-inside-1_401_2262" fill="white">
<path fill-rule="evenodd" clip-rule="evenodd" d="M57.5604 238.833C57.5604 144.375 134.954 67.6764 230.841 66.6045V411.062C134.954 409.991 57.5604 333.292 57.5604 238.833ZM167.547 221.144C178.88 221.144 188.067 211.957 188.067 200.624C188.067 189.291 178.88 180.104 167.547 180.104C156.214 180.104 147.027 189.291 147.027 200.624C147.027 211.957 156.214 221.144 167.547 221.144Z"/>
</mask>
<path fill-rule="evenodd" clip-rule="evenodd" d="M57.5604 238.833C57.5604 144.375 134.954 67.6764 230.841 66.6045V411.062C134.954 409.991 57.5604 333.292 57.5604 238.833ZM167.547 221.144C178.88 221.144 188.067 211.957 188.067 200.624C188.067 189.291 178.88 180.104 167.547 180.104C156.214 180.104 147.027 189.291 147.027 200.624C147.027 211.957 156.214 221.144 167.547 221.144Z" fill="white"/>
<path d="M230.841 66.6045H276.441V20.4919L230.331 21.0073L230.841 66.6045ZM230.841 411.062L230.331 456.66L276.441 457.175V411.062H230.841ZM230.331 21.0073C110.241 22.3498 11.9604 118.617 11.9604 238.833H103.16C103.16 170.134 159.667 113.003 231.35 112.202L230.331 21.0073ZM276.441 411.062V66.6045H185.241V411.062H276.441ZM11.9604 238.833C11.9604 359.05 110.241 455.317 230.331 456.66L231.35 365.465C159.667 364.664 103.16 307.533 103.16 238.833H11.9604ZM142.467 200.624C142.467 186.773 153.696 175.544 167.547 175.544V266.744C204.064 266.744 233.667 237.141 233.667 200.624H142.467ZM167.547 225.704C153.696 225.704 142.467 214.475 142.467 200.624H233.667C233.667 164.107 204.064 134.504 167.547 134.504V225.704ZM192.627 200.624C192.627 214.475 181.398 225.704 167.547 225.704V134.504C131.03 134.504 101.427 164.107 101.427 200.624H192.627ZM167.547 175.544C181.398 175.544 192.627 186.773 192.627 200.624H101.427C101.427 237.141 131.03 266.744 167.547 266.744V175.544Z" fill="white" mask="url(#path-8-inside-1_401_2262)"/>
<mask id="path-10-inside-2_401_2262" fill="white">
<path fill-rule="evenodd" clip-rule="evenodd" d="M307.88 229.617C290.702 229.617 276.776 215.691 276.776 198.513C276.776 181.335 290.702 167.409 307.88 167.409C325.059 167.409 338.984 181.335 338.984 198.513C338.984 215.691 325.059 229.617 307.88 229.617ZM307.976 220.21C319.905 220.21 329.576 210.54 329.576 198.61C329.576 186.681 319.905 177.01 307.976 177.01C296.046 177.01 286.376 186.681 286.376 198.61C286.376 210.54 296.046 220.21 307.976 220.21Z"/>
</mask>
<path fill-rule="evenodd" clip-rule="evenodd" d="M307.88 229.617C290.702 229.617 276.776 215.691 276.776 198.513C276.776 181.335 290.702 167.409 307.88 167.409C325.059 167.409 338.984 181.335 338.984 198.513C338.984 215.691 325.059 229.617 307.88 229.617ZM307.976 220.21C319.905 220.21 329.576 210.54 329.576 198.61C329.576 186.681 319.905 177.01 307.976 177.01C296.046 177.01 286.376 186.681 286.376 198.61C286.376 210.54 296.046 220.21 307.976 220.21Z" fill="white"/>
<path d="M266.408 198.513C266.408 221.418 284.976 239.985 307.88 239.985V219.249C296.428 219.249 287.144 209.965 287.144 198.513H266.408ZM307.88 157.041C284.976 157.041 266.408 175.609 266.408 198.513H287.144C287.144 187.061 296.428 177.777 307.88 177.777V157.041ZM349.352 198.513C349.352 175.609 330.785 157.041 307.88 157.041V177.777C319.332 177.777 328.616 187.061 328.616 198.513H349.352ZM307.88 239.985C330.785 239.985 349.352 221.418 349.352 198.513H328.616C328.616 209.965 319.332 219.249 307.88 219.249V239.985ZM319.208 198.61C319.208 204.814 314.179 209.842 307.976 209.842V230.578C325.631 230.578 339.944 216.266 339.944 198.61H319.208ZM307.976 187.378C314.179 187.378 319.208 192.407 319.208 198.61H339.944C339.944 180.955 325.631 166.642 307.976 166.642V187.378ZM296.744 198.61C296.744 192.407 301.772 187.378 307.976 187.378V166.642C290.32 166.642 276.008 180.955 276.008 198.61H296.744ZM307.976 209.842C301.772 209.842 296.744 204.814 296.744 198.61H276.008C276.008 216.266 290.32 230.578 307.976 230.578V209.842Z" fill="white" mask="url(#path-10-inside-2_401_2262)"/>
<path fill-rule="evenodd" clip-rule="evenodd" d="M307.977 220.21C319.906 220.21 329.577 210.539 329.577 198.61C329.577 192.714 327.215 187.37 323.385 183.473C330.851 186.104 336.201 193.22 336.201 201.586C336.201 212.19 327.605 220.786 317.001 220.786H240.201C229.597 220.786 221.001 212.19 221.001 201.586C221.001 190.982 229.597 182.386 240.201 182.386H293.717C289.217 186.344 286.377 192.145 286.377 198.61C286.377 210.539 296.047 220.21 307.977 220.21Z" fill="white"/>
<path d="M230.6 456L230.6 24" stroke="white" stroke-width="33.6" stroke-linecap="round"/>
</svg>
